<svg width="25" height="25" viewBox="0 0 25 25" fill="none" xmlns="http://www.w3.org/2000/svg">
<path fill-rule="evenodd" clip-rule="evenodd" d="M7.8733 8.33338C6.79023 8.34245 5.70693 8.34047 4.62379 8.33445C4.31775 8.33263 4.16613 8.43828 4.16669 8.7866C4.17347 12.6706 4.17084 16.5546 4.17163 20.4386C4.17171 20.5865 4.14906 20.7489 4.33115 20.8163C4.33809 20.84 8.15644 20.8385 8.16673 20.815C8.36773 20.7367 8.32721 20.5545 8.32729 20.397C8.32904 16.5404 8.32593 12.6837 8.33335 8.82705C8.33391 8.47708 8.21411 8.33049 7.8733 8.33338Z" fill="#222222"/>
<path fill-rule="evenodd" clip-rule="evenodd" d="M6.24998 3.125C5.09946 3.125 4.16669 4.05778 4.16669 5.2083C4.16669 6.35896 5.09946 7.29167 6.24998 7.29167C7.40058 7.29167 8.33335 6.35896 8.33335 5.2083C8.33335 4.05778 7.40058 3.125 6.24998 3.125Z" fill="#222222"/>
<path fill-rule="evenodd" clip-rule="evenodd" d="M21.821 20.2346C21.8235 18.2438 21.8336 16.2529 21.8174 14.2622C21.8103 13.3902 21.779 12.5159 21.5958 11.6577C21.2954 10.2507 20.6193 9.15214 19.2765 8.63988C18.3805 8.29816 17.4439 8.27617 16.5083 8.40863C15.7224 8.51992 14.9985 8.81927 14.3389 9.37568C14.3389 9.17324 14.3382 9.03899 14.3391 8.9049C14.3411 8.60376 14.201 8.46764 13.9123 8.46902C12.8863 8.47381 11.8603 8.47259 10.8342 8.46983C10.5518 8.46902 10.4163 8.58566 10.4167 8.90311C10.4221 12.7233 10.4201 16.5435 10.4202 20.3637C10.4202 20.5103 10.401 20.6661 10.5705 20.7383C10.5884 20.7619 14.2925 20.7707 14.2924 20.7466C14.5353 20.6375 14.4606 20.4072 14.461 20.2197C14.4644 18.3355 14.4531 16.4512 14.4633 14.5671C14.4664 13.9779 14.4881 13.3827 14.7426 12.834C15.0442 12.184 15.6682 11.9023 16.5473 12.0176C17.152 12.0968 17.538 12.5063 17.6582 13.2197C17.7027 13.4832 17.736 13.7527 17.7376 14.0197C17.7493 16.0922 17.7509 18.1648 17.7595 20.2374C17.7604 20.4288 17.7029 20.6547 17.9495 20.7509C17.941 20.7781 21.6707 20.7616 21.6717 20.7353C21.8724 20.6183 21.8207 20.4142 21.821 20.2346Z" fill="#222222"/>
</svg>
